<?xml version="1.0" encoding="UTF-8" standalone="no"?>
<!-- Created with Inkscape (http://www.inkscape.org/) -->

<svg
   width="297mm"
   height="210mm"
   viewBox="0 0 297 210"
   version="1.1"
   id="svg1"
   inkscape:version="1.4 (e7c3feb100, 2024-10-09)"
   sodipodi:docname="mockup.svg"
   xml:space="preserve"
   xmlns:inkscape="http://www.inkscape.org/namespaces/inkscape"
   xmlns:sodipodi="http://sodipodi.sourceforge.net/DTD/sodipodi-0.dtd"
   xmlns="http://www.w3.org/2000/svg"
   xmlns:svg="http://www.w3.org/2000/svg"><sodipodi:namedview
     id="namedview1"
     pagecolor="#ffffff"
     bordercolor="#000000"
     borderopacity="0.25"
     inkscape:showpageshadow="2"
     inkscape:pageopacity="0.0"
     inkscape:pagecheckerboard="0"
     inkscape:deskcolor="#d1d1d1"
     inkscape:document-units="mm"
     inkscape:zoom="4.0265008"
     inkscape:cx="209.36293"
     inkscape:cy="499.56528"
     inkscape:window-width="2560"
     inkscape:window-height="1008"
     inkscape:window-x="1080"
     inkscape:window-y="509"
     inkscape:window-maximized="1"
     inkscape:current-layer="layer1"
     showgrid="false" /><defs
     id="defs1"><rect
       x="39.337361"
       y="18.263775"
       width="411.63738"
       height="67.435475"
       id="rect30" /><rect
       x="165.90087"
       y="466.90664"
       width="74.506378"
       height="44.703827"
       id="rect29" /><rect
       x="39.240026"
       y="435.11725"
       width="91.8912"
       height="23.842041"
       id="rect7" /></defs><g
     inkscape:label="Layer 1"
     inkscape:groupmode="layer"
     id="layer1"><rect
       style="fill:#686d76;fill-opacity:1;stroke:#000000;stroke-width:0.425597;stroke-dasharray:none;stroke-opacity:1"
       id="rect1"
       width="253.12088"
       height="173.12514"
       x="41.33609"
       y="31.200539"
       inkscape:export-filename="../startbootstrap-freelancer/src/assets/img/portfolio/Upixel-editor-exemplo_GUI.png"
       inkscape:export-xdpi="96"
       inkscape:export-ydpi="96" /><rect
       style="fill:#373a40;fill-opacity:1;stroke:none;stroke-width:0.406375;stroke-dasharray:none;stroke-opacity:1"
       id="rect2"
       width="19.437241"
       height="122.26599"
       x="41.51342"
       y="31.463682" /><g
       id="g6"
       transform="translate(0.26284195,-38.900608)"><rect
         style="fill:#eeeeee;fill-opacity:1;stroke:none;stroke-width:0.433499;stroke-dasharray:none;stroke-opacity:1"
         id="rect3"
         width="20"
         height="11"
         x="13.444041"
         y="162.43631" /><rect
         style="fill:#686d76;fill-opacity:1;stroke:none;stroke-width:0.369689;stroke-dasharray:none;stroke-opacity:1"
         id="rect4"
         width="20"
         height="8"
         x="13.444041"
         y="173.22791" /><rect
         style="fill:#373a40;fill-opacity:1;stroke:none;stroke-width:0.32016;stroke-dasharray:none;stroke-opacity:1"
         id="rect5"
         width="20"
         height="6"
         x="13.44404"
         y="181.01952" /><rect
         style="fill:#dc5f00;fill-opacity:1;stroke:none;stroke-width:0.26141;stroke-dasharray:none;stroke-opacity:1"
         id="rect6"
         width="20"
         height="4"
         x="13.444041"
         y="186.81111" /></g><text
       xml:space="preserve"
       transform="matrix(0.26458333,0,0,0.26458333,3.0226824,4.4683131)"
       id="text6"
       style="text-align:start;writing-mode:lr-tb;direction:ltr;white-space:pre;shape-inside:url(#rect7);display:inline;fill:#000000;fill-opacity:1;stroke:none;stroke-width:1.00157;stroke-dasharray:none;stroke-opacity:1"><tspan
         x="39.240234"
         y="446.03569"
         id="tspan5">Paleta de cores</tspan></text><rect
       style="fill:#eeeeee;fill-opacity:1;stroke:none;stroke-width:0.329215;stroke-dasharray:none;stroke-opacity:1"
       id="rect8"
       width="128"
       height="128"
       x="125.99391"
       y="45.523712" /><g
       id="g24"
       transform="matrix(1.6060255,0,0,1.6060255,-48.504283,-79.669925)"><g
         id="g25"
         transform="translate(-183.3264,13.667258)"><rect
           style="fill:#000000;fill-opacity:1;stroke:#373a40;stroke-width:0.275;stroke-dasharray:none;stroke-opacity:1"
           id="rect9"
           width="4.7249651"
           height="4.7249656"
           x="240.50439"
           y="70.073227" /><rect
           style="fill:#7e2553;fill-opacity:1;stroke:#373a40;stroke-width:0.275;stroke-dasharray:none;stroke-opacity:1"
           id="rect11"
           width="4.7249651"
           height="4.7249656"
           x="240.50439"
           y="74.835732" /><rect
           style="fill:#008751;fill-opacity:1;stroke:#373a40;stroke-width:0.275;stroke-dasharray:none;stroke-opacity:1"
           id="rect12"
           width="4.7249651"
           height="4.7249656"
           x="245.26683"
           y="74.835732" /><rect
           style="fill:#ab5236;fill-opacity:1;stroke:#373a40;stroke-width:0.275;stroke-dasharray:none;stroke-opacity:1"
           id="rect13"
           width="4.7249651"
           height="4.7249656"
           x="240.50439"
           y="79.598236" /><rect
           style="fill:#5f574f;fill-opacity:1;stroke:#373a40;stroke-width:0.275;stroke-dasharray:none;stroke-opacity:1"
           id="rect14"
           width="4.7249651"
           height="4.7249656"
           x="245.26683"
           y="79.598236" /><rect
           style="fill:#c2c3c7;fill-opacity:1;stroke:#373a40;stroke-width:0.275;stroke-dasharray:none;stroke-opacity:1"
           id="rect15"
           width="4.7249651"
           height="4.7249656"
           x="240.50439"
           y="84.360741" /><rect
           style="fill:#fff1e8;fill-opacity:1;stroke:#373a40;stroke-width:0.275;stroke-dasharray:none;stroke-opacity:1"
           id="rect16"
           width="4.7249651"
           height="4.7249656"
           x="245.26683"
           y="84.360741" /><rect
           style="fill:#ff004d;fill-opacity:1;stroke:#373a40;stroke-width:0.275;stroke-dasharray:none;stroke-opacity:1"
           id="rect17"
           width="4.7249651"
           height="4.7249656"
           x="240.50439"
           y="89.123245" /><rect
           style="fill:#ffa300;fill-opacity:1;stroke:#373a40;stroke-width:0.275;stroke-dasharray:none;stroke-opacity:1"
           id="rect18"
           width="4.7249651"
           height="4.7249656"
           x="245.26683"
           y="89.123245" /><rect
           style="fill:#ffec27;fill-opacity:1;stroke:#373a40;stroke-width:0.275;stroke-dasharray:none;stroke-opacity:1"
           id="rect19"
           width="4.7249651"
           height="4.7249656"
           x="240.50439"
           y="93.88575" /><rect
           style="fill:#29adff;fill-opacity:1;stroke:#373a40;stroke-width:0.275;stroke-dasharray:none;stroke-opacity:1"
           id="rect21"
           width="4.7249651"
           height="4.7249656"
           x="240.50439"
           y="98.648262" /><rect
           style="fill:#83769c;fill-opacity:1;stroke:#373a40;stroke-width:0.275;stroke-dasharray:none;stroke-opacity:1"
           id="rect22"
           width="4.7249651"
           height="4.7249656"
           x="245.26683"
           y="98.648262" /><rect
           style="fill:#ff77a8;fill-opacity:1;stroke:#373a40;stroke-width:0.275;stroke-dasharray:none;stroke-opacity:1"
           id="rect23"
           width="4.7249651"
           height="4.7249656"
           x="240.50439"
           y="103.41077" /><rect
           style="fill:#ffccaa;fill-opacity:1;stroke:#373a40;stroke-width:0.275;stroke-dasharray:none;stroke-opacity:1"
           id="rect24"
           width="4.7249651"
           height="4.7249656"
           x="245.26683"
           y="103.41077" /><rect
           style="fill:#1d2b53;fill-opacity:1;stroke:#373a40;stroke-width:0.275;stroke-dasharray:none;stroke-opacity:1"
           id="rect10"
           width="4.7249651"
           height="4.7249656"
           x="245.26683"
           y="70.073227" /><rect
           style="fill:#00e436;fill-opacity:1;stroke:#dc5f00;stroke-width:0.275;stroke-dasharray:none;stroke-opacity:1"
           id="rect20"
           width="4.7249651"
           height="4.7249656"
           x="245.26683"
           y="93.88575" /></g><rect
         style="fill:#c2c3c7;fill-opacity:1;stroke:#686d76;stroke-width:0.211208;stroke-dasharray:none;stroke-opacity:1"
         id="rect26"
         width="6.6241398"
         height="6.6241393"
         x="59.904293"
         y="74.649612" /><rect
         style="fill:#00e436;fill-opacity:1;stroke:#dc5f00;stroke-width:0.211208;stroke-dasharray:none;stroke-opacity:1"
         id="rect25"
         width="6.6241398"
         height="6.6241393"
         x="57.010658"
         y="72.117691" /><text
         xml:space="preserve"
         transform="matrix(0.16474417,0,0,0.16474417,30.20144,49.606887)"
         id="text29"
         style="font-style:normal;font-variant:normal;font-weight:normal;font-stretch:normal;font-size:40px;font-family:sans-serif;-inkscape-font-specification:'sans-serif, Normal';font-variant-ligatures:normal;font-variant-caps:normal;font-variant-numeric:normal;font-variant-east-asian:normal;text-align:start;writing-mode:lr-tb;direction:ltr;white-space:pre;shape-inside:url(#rect30);display:inline;fill:#000000;fill-opacity:1;stroke:none;stroke-width:2.63811;stroke-dasharray:none;stroke-opacity:1"><tspan
           x="39.337891"
           y="54.658679"
           id="tspan6">Mokcup Upixel-Editor</tspan></text></g><path
       d="m 44.990555,118.39032 c -0.14875,-0.1439 -0.389111,-0.1439 -0.537855,0 -0.14875,0.1439 -0.14875,0.37759 0,0.52149 l 0.967425,0.93589 -1.095938,1.06024 c -0.446229,0.43168 -0.446229,1.1316 0,1.56329 l 1.398182,1.35263 c 0.44623,0.43168 1.169715,0.43168 1.615942,0 l 2.265653,-2.19298 c 0.334375,-0.32349 0.334375,-0.84844 0,-1.17192 L 47.80239,118.7161 c -0.334374,-0.32347 -0.876988,-0.32347 -1.211362,0 l -0.631861,0.61013 z m 0.968612,1.97886 0.587834,0.56868 c 0.14875,0.1439 0.390302,0.1439 0.539044,0 0.148751,-0.1439 0.148751,-0.37759 0,-0.52148 l -0.587833,-0.56868 0.631861,-0.61126 c 0.03689,-0.0357 0.09756,-0.0357 0.134472,0 l 1.801575,1.74287 c 0.03689,0.0357 0.03689,0.0944 0,0.13009 l -0.504538,0.48807 h -3.798298 c 0.01667,-0.0622 0.04997,-0.11965 0.09996,-0.16805 z"
       id="path1"
       style="fill:#eeeeee;fill-opacity:1;stroke:#eeeeee;stroke-width:0.011704;stroke-opacity:1" /><path
       d="m 57.321834,118.49158 -0.555052,0.55499 1.49084,1.49071 0.555052,-0.55499 c 0.286699,-0.28669 0.286699,-0.75111 0,-1.03778 l -0.451838,-0.45293 c -0.286703,-0.28671 -0.751157,-0.28671 -1.037855,0 z m -0.814229,0.81414 -2.673191,2.67413 c -0.119264,0.11933 -0.206424,0.26718 -0.25459,0.42887 l -0.405967,1.37948 c -0.02865,0.0976 -0.0022,0.20181 0.0688,0.27291 0.0711,0.0712 0.175458,0.0977 0.271791,0.07 l 1.379602,-0.40592 c 0.161697,-0.0483 0.309635,-0.13539 0.428901,-0.25457 l 2.675486,-2.67413 z"
       id="path1-6"
       style="fill:#dc5f00;fill-opacity:1;stroke-width:0.0114675" /><circle
       style="fill:none;fill-opacity:1;stroke:#eeeeee;stroke-width:0.676456;stroke-dasharray:none;stroke-opacity:1"
       id="path26"
       cx="46.922131"
       cy="128.89131"
       r="2.7900696" /><rect
       style="fill:none;fill-opacity:1;stroke:#eeeeee;stroke-width:0.682321;stroke-dasharray:none;stroke-opacity:1"
       id="rect27"
       width="5.5742168"
       height="5.5742168"
       x="53.307968"
       y="126.10422" /><path
       style="fill:none;fill-opacity:1;stroke:#eeeeee;stroke-width:0.589454;stroke-dasharray:none;stroke-opacity:1"
       d="m 49.745716,133.83752 -5.647172,5.65006"
       id="path27" /><rect
       style="fill:#00e436;fill-opacity:1;stroke:none;stroke-width:0.571886;stroke-dasharray:none;stroke-opacity:1"
       id="rect28"
       width="4"
       height="4"
       x="197.18526"
       y="81.794296" /><path
       d="m 203.56283,78.300705 -0.55505,0.554994 1.49083,1.490713 0.55505,-0.554994 c 0.28671,-0.286692 0.28671,-0.751106 0,-1.037782 l -0.45184,-0.452931 c -0.28671,-0.286708 -0.75115,-0.286708 -1.03784,0 z m -0.81423,0.814143 -2.6732,2.674128 c -0.11932,0.119328 -0.20642,0.267179 -0.25459,0.428874 l -0.40597,1.379479 c -0.0286,0.09765 -0.002,0.201813 0.0687,0.272912 0.0711,0.07115 0.17546,0.09765 0.27179,0.07003 l 1.37961,-0.405923 c 0.16169,-0.04834 0.30964,-0.135388 0.4289,-0.254571 l 2.67548,-2.674129 z"
       id="path28"
       style="fill:#373a40;fill-opacity:1;stroke-width:0.0114675" /><text
       xml:space="preserve"
       transform="matrix(0.26458333,0,0,0.26458333,0.50076144,19.543424)"
       id="text28"
       style="text-align:start;writing-mode:lr-tb;direction:ltr;white-space:pre;shape-inside:url(#rect29);display:inline;fill:#dc5f00;fill-opacity:1;stroke:none;stroke-width:2.63811;stroke-dasharray:none;stroke-opacity:1"><tspan
         x="165.90039"
         y="477.82475"
         id="tspan7">32 X 32
</tspan><tspan
         x="165.90039"
         y="492.82475"
         id="tspan8">X 12, Y 15</tspan></text><path
       d="m 56.937611,133.92082 -1.18935,1.19084 -0.11014,-0.11018 c -0.14648,-0.14651 -0.38435,-0.14651 -0.53082,0 -0.14647,0.14651 -0.14647,0.38445 0,0.53096 l 1.87484,1.87534 c 0.14647,0.14651 0.38434,0.14651 0.53081,0 0.14647,-0.14651 0.14647,-0.38445 0,-0.53096 l -0.11015,-0.11017 1.18935,-1.19084 c 0.45699,-0.45712 0.45699,-1.19788 0,-1.65382 -0.45699,-0.45594 -1.19755,-0.45711 -1.65337,0 z m -3.35361,3.44711 c -0.17577,0.17581 -0.2742,0.41492 -0.2742,0.6634 v 0.49696 l -0.31169,0.46767 c -0.0996,0.14885 -0.0797,0.34693 0.0469,0.47352 0.12655,0.12658 0.32458,0.14651 0.4734,0.0469 l 0.46754,-0.31178 h 0.49683 c 0.24841,0 0.48746,-0.0985 0.66322,-0.27426 l 1.41433,-1.41471 -0.53081,-0.53096 -1.41433,1.41471 c -0.0352,0.0352 -0.0832,0.0551 -0.13241,0.0551 h -0.42301 v -0.42312 c 0,-0.0492 0.0199,-0.0973 0.0551,-0.13245 l 1.41433,-1.41471 -0.53081,-0.53095 z"
       id="path1-2"
       style="stroke-width:0.0117193;fill:#eeeeee;fill-opacity:1" /></g></svg>
